<?xml version="1.0" encoding="utf-8"?>
<!-- Generator: Adobe Illustrator 22.0.1, SVG Export Plug-In . SVG Version: 6.00 Build 0)  -->
<svg version="1.1" id="Layer_1" xmlns="http://www.w3.org/2000/svg" xmlns:xlink="http://www.w3.org/1999/xlink" x="0px" y="0px"
	 viewBox="0 0 200 200" style="enable-background:new 0 0 200 200;" xml:space="preserve">
<style type="text/css">
	.st0{fill:#FF4800;}
</style>
<circle cx="100" cy="100" r="99"/>
<g>
	<g>
		<path class="st0" d="M153.8,106.6l-17.3,4.3l24-13.4l-3.8,7.5l7.4-4.8L176.3,76l-23.1,15.7l1.8-9.4L135,100.1l3.8-8.4l-18.3,15.4
			c7.5,2.9,11.5,10.9,0,11.7c-3.2,0.2-6.2,0-8.8-0.5c-2.1-5.3-4.8-11.7-5.4-15.4c-0.7-4.8,6.9-7.8,6.9-7.8l7-3l-9.5,0.3l9-5.6
			l-33,9.7L84,101c0,0,11.8-4.4,11.1,1.9c-0.4,3.8-3.1,10.1-5.2,15.4c-2.6,0.5-5.7,0.7-8.9,0.5c-11.5-0.7-7.5-8.8,0-11.7L62.7,91.7
			l3.8,8.4L46.4,82.3l1.8,9.4L25.2,76l12.2,24.1l7.4,4.8L41,97.4l24,13.4l-17.3-4.3l3.4,4.3l-14.5-5.8l7.8,12.5l6.6,2.3l-2-3.5
			l17.5,0.9L53.4,121l5.7,1.7l-13.9,2.7l9.7,9.3l5.3-1l-4.2-1.7l15.2-4.8l-8.5,5.6l3.3,0.6l-10.3,6l12.5,2.4l12.7-7.2l-9.1,9.3
			l5.6-1.2l-8.6,7.5l10.7-3.2l4.1-7.7l2.4,3.6l14.6,14.6l16.6-17.7l0.4-0.6l4.1,7.7l10.7,3.2l-8.6-7.5l5.6,1.2l-9.1-9.3l12.7,7.2
			l12.5-2.4l-10.3-6l3.3-0.6l-8.5-5.6l15.2,4.8l-4.2,1.7l5.3,1l9.7-9.3l-13.9-2.7l5.7-1.7l-13.3-3.7l17.5-0.9l-2,3.5l6.6-2.3
			l7.8-12.5l-14.5,5.8L153.8,106.6z M98.2,98.1L94.9,96l8-2.2L98.2,98.1z"/>
	</g>
</g>
</svg>
